<svg width="64" height="64" viewBox="0 0 64 64" fill="none" xmlns="http://www.w3.org/2000/svg">
<rect width="64" height="64" rx="16" fill="url(#paint0_linear_485_1325)"/>
<rect x="0.5" y="0.5" width="63" height="63" rx="15.5" stroke="white" stroke-opacity="0.2"/>
<path fill-rule="evenodd" clip-rule="evenodd" d="M20.122 48.0783C19.3883 47.5358 19.8167 46.4417 20.729 46.4217C26.1079 46.3039 32.0908 45.408 37.8487 43.2076C42.1223 41.5744 46.2631 39.2211 49.919 35.9629C50.6283 35.3308 51.7403 35.8807 51.5125 36.8029C49.3565 45.5289 41.4593 52 32.0471 52C27.5803 52 23.4547 50.5425 20.122 48.0783ZM13.8278 38.9952C13.4606 38.9508 13.1499 38.7028 13.0323 38.3522C12.3627 36.3565 12 34.2205 12 32C12 20.9543 20.9754 12 32.0471 12C40.1833 12 47.1875 16.8355 50.3296 23.7831C50.4631 24.0782 50.4357 24.4211 50.2605 24.6935C46.3982 30.7016 41.0183 34.3842 35.2999 36.5695C27.839 39.4208 19.7688 39.7133 13.8278 38.9952Z" fill="white"/>
<path d="M49.5859 35.5898C50.1025 35.1295 50.7832 35.0921 51.2959 35.3555C51.8206 35.6251 52.1726 36.2162 51.998 36.9229C49.788 45.8675 41.6936 52.5 32.0469 52.5C27.4698 52.4999 23.2409 51.006 19.8252 48.4805C19.2645 48.0659 19.1382 47.414 19.3398 46.8779C19.538 46.3515 20.0487 45.9366 20.7178 45.9219C26.0518 45.8051 31.9761 44.9162 37.6699 42.7402C41.8945 41.1258 45.9812 38.8023 49.5859 35.5898ZM32.0469 11.5C40.3861 11.5 47.5648 16.4567 50.7852 23.5771C50.9896 24.0291 50.946 24.5512 50.6807 24.9639C46.7501 31.0779 41.2763 34.8204 35.4785 37.0361C27.9232 39.9235 19.7671 40.2164 13.7676 39.4912C13.2136 39.4242 12.7391 39.049 12.5586 38.5117C11.8721 36.4654 11.5 34.2753 11.5 32C11.5 20.6771 20.7002 11.5001 32.0469 11.5Z" stroke="black" stroke-opacity="0.5"/>
<defs>
<linearGradient id="paint0_linear_485_1325" x1="7.46667" y1="3.73333" x2="56.5333" y2="62.9333" gradientUnits="userSpaceOnUse">
<stop stop-color="#111112"/>
<stop offset="1" stop-color="#26262B"/>
</linearGradient>
</defs>
</svg>
