<svg width="256" height="256" viewBox="0 0 256 256" fill="none" xmlns="http://www.w3.org/2000/svg">
<path fill-rule="evenodd" clip-rule="evenodd" d="M41.2701 222.049C40.5991 221.431 41.0523 220.322 41.9646 220.337C79.7853 220.958 123.539 215.738 165.432 199.729C197.29 187.554 227.996 169.125 253.988 142.575C254.652 141.896 255.8 142.434 255.687 143.377C248.073 206.82 193.944 256 128.302 256C94.7136 256 64.1401 243.124 41.2701 222.049ZM8.47483 172.36C8.10828 172.311 7.80447 172.064 7.67792 171.717C2.70966 158.076 0 143.354 0 128C0 57.3075 57.4426 0 128.302 0C181.364 0 226.903 32.1365 246.431 77.9649C246.558 78.2628 246.53 78.6065 246.359 78.8814C221.544 118.731 186.459 142.975 149.12 157.245C100.007 176.014 46.7679 177.459 8.47483 172.36Z" fill="white"/>
</svg>
