<svg width="25" height="24" viewBox="0 0 25 24" fill="none" xmlns="http://www.w3.org/2000/svg">
<path d="M11.9785 0C18.5941 8.24649e-06 23.957 5.36297 23.957 11.9785V12.0215C23.957 18.637 18.5941 24 11.9785 24C5.36297 24 0 18.637 0 12.0215V11.9785C0 5.36296 5.36297 0 11.9785 0ZM21.4824 13.7119C21.5328 13.4452 21.2106 13.2907 21.0137 13.4775C19.2599 15.1416 17.2373 16.3217 15.1455 17.123C12.3616 18.1894 9.46253 18.586 6.89844 18.5986C6.63797 18.6 6.51224 18.9141 6.71387 19.0791C8.28998 20.3689 10.3046 21.1426 12.5 21.1426C16.9643 21.1426 20.6808 17.943 21.4824 13.7119ZM12.5 2.85742C7.45056 2.85744 3.35742 6.95055 3.35742 12C3.35742 13.0512 3.53481 14.0609 3.86133 15.001C3.89601 15.1008 3.98401 15.1723 4.08887 15.1855C6.8075 15.5296 10.5379 15.4087 13.9834 14.0889C16.6149 13.0808 19.0897 11.3758 20.8545 8.58496C20.9036 8.50707 20.911 8.40954 20.874 8.3252C19.4591 5.10577 16.2421 2.85742 12.5 2.85742Z" fill="#E4E4E7"/>
</svg>
